<svg xmlns="http://www.w3.org/2000/svg" xmlns:xlink="http://www.w3.org/1999/xlink" viewBox="0 0 404.73 335.2"><defs><style>.cls-1,.cls-3,.cls-4,.cls-5{fill:none;}.cls-2{clip-path:url(#clip-path);}.cls-3,.cls-4{stroke:#97c93d;}.cls-3,.cls-4,.cls-5{stroke-miterlimit:10;}.cls-3{stroke-width:0.86px;}.cls-4{stroke-width:3px;}.cls-5{stroke:#c8232a;stroke-width:3px;}</style><clipPath id="clip-path"><path class="cls-1" d="M188.82,210l10.9,10.9.3.2V333.7H170a3.46,3.46,0,0,1-3.5-3.4,3.19,3.19,0,0,1,.3-1.4l15.8-34.8a3.52,3.52,0,0,0-1.7-4.6,3.19,3.19,0,0,0-1.4-.3h-45.1a3.46,3.46,0,0,1-3.5-3.4,3.29,3.29,0,0,1,.6-1.9l31.8-50.2a3.55,3.55,0,0,0-1.1-4.8,4.07,4.07,0,0,0-1.8-.5H85.12a3.46,3.46,0,0,1-3.4-3.5,2.88,2.88,0,0,1,.7-2l25.4-33.5a3.47,3.47,0,0,0-.7-4.8,3.14,3.14,0,0,0-2.1-.7H20.42a3.36,3.36,0,0,1-2.9-1.6L1.82,156.8a3.41,3.41,0,0,1,1.1-4.7,3.74,3.74,0,0,1,1.8-.5H105a3.4,3.4,0,0,0,3.4-3.5,3.32,3.32,0,0,0-.7-2.1l-25.4-33.5a3.4,3.4,0,0,1,.8-4.8,3.72,3.72,0,0,1,2-.7h75.3a3.42,3.42,0,0,0,3-5.2l-31.8-50.2a3.46,3.46,0,0,1,1.1-4.8,3.2,3.2,0,0,1,1.9-.5h45.1a3.46,3.46,0,0,0,3.5-3.4,3.19,3.19,0,0,0-.3-1.4L167.12,6.7a3.52,3.52,0,0,1,1.7-4.6,3.19,3.19,0,0,1,1.4-.3h30V114.4l-.3.2-37,37-3.6,3.6-10.2,10.2a3.57,3.57,0,0,0,0,4.9l39.7,39.7"/></clipPath></defs><g id="Layer_2" data-name="Layer 2"><g id="Layer_1-2" data-name="Layer 1"><g class="cls-2"><path class="cls-1" d="M5.82,151.3h100.5a3.46,3.46,0,0,0,3.5-3.4,3.14,3.14,0,0,0-.7-2.1l-25.4-33.6a3.47,3.47,0,0,1,.7-4.8,3.77,3.77,0,0,1,2.1-.7h75.4a3.46,3.46,0,0,0,3.5-3.4,4.14,4.14,0,0,0-.5-1.9L133,51.1a3.53,3.53,0,0,1,1.1-4.8,4.07,4.07,0,0,1,1.8-.5h45.2a3.46,3.46,0,0,0,3.5-3.4,3.19,3.19,0,0,0-.3-1.4L168.52,6.1a3.52,3.52,0,0,1,1.7-4.6,3.53,3.53,0,0,1,1.4-.3h30V114c-.1.1-.2.2-.3.2l-50.9,50.9a3.57,3.57,0,0,0,0,4.9l50.9,50.9c.1.1.2.2.3.2V333.9h-30a3.46,3.46,0,0,1-3.5-3.4,3.19,3.19,0,0,1,.3-1.4l15.9-34.9a3.52,3.52,0,0,0-1.7-4.6,3.19,3.19,0,0,0-1.4-.3H136a3.46,3.46,0,0,1-3.5-3.4,4.14,4.14,0,0,1,.5-1.9l31.8-50.2a3.55,3.55,0,0,0-1.1-4.8,3.2,3.2,0,0,0-1.9-.5H86.52a3.39,3.39,0,0,1-3.4-3.5,3.32,3.32,0,0,1,.7-2.1l25.4-33.6a3.3,3.3,0,0,0-.7-4.8,3.14,3.14,0,0,0-2.1-.7H21.62a3.36,3.36,0,0,1-2.9-1.6L3,156.6a3.53,3.53,0,0,1,1.1-4.8A3.37,3.37,0,0,1,5.82,151.3Z"/></g><g class="cls-2"><polyline class="cls-3" points="198.72 27.8 189.42 37.1 157.72 37.1"/></g><g class="cls-2"><polyline class="cls-3" points="161.22 34.1 188.22 34.1 200.92 21.4"/></g><g class="cls-2"><path class="cls-3" d="M175.22,202.1a6,6,0,1,1-6-6,6.08,6.08,0,0,1,6,6Z"/></g><g class="cls-2"><path class="cls-3" d="M177.92,327.4a6,6,0,1,1-6.1-5.9h.1A5.87,5.87,0,0,1,177.92,327.4Z"/></g><g class="cls-2"><path class="cls-3" d="M194.72,35.6a6,6,0,0,1-12,.2,6,6,0,0,1,5.9-6.1h.2A5.85,5.85,0,0,1,194.72,35.6Z"/></g><g class="cls-2"><line class="cls-3" x1="170.02" y1="15.3" x2="200.92" y2="15.3"/></g><g class="cls-2"><line class="cls-3" x1="200.32" y1="17.2" x2="170.62" y2="17.2"/></g><g class="cls-2"><line class="cls-3" x1="165.72" y1="3.9" x2="199.52" y2="3.9"/></g><g class="cls-2"><line class="cls-3" x1="199.52" y1="5.8" x2="165.72" y2="5.8"/></g><g class="cls-2"><path class="cls-3" d="M200.62,25.1h-10.4l-10.7,10.7"/></g><g class="cls-2"><path class="cls-3" d="M178.52,34l10.8-10.8h11.3"/></g><g class="cls-2"><path class="cls-3" d="M18.72,162.5a3.85,3.85,0,0,1-7.7-.1,3.76,3.76,0,0,1,3.9-3.8h0A3.82,3.82,0,0,1,18.72,162.5Z"/></g><g class="cls-2"><path class="cls-3" d="M138.52,187.7a3.8,3.8,0,0,1-3.8,3.8h0a3.8,3.8,0,1,1,3.8-3.8Z"/></g><g class="cls-2"><path class="cls-3" d="M186.52,126.3a3.85,3.85,0,1,1-3.9-3.8h.1A3.8,3.8,0,0,1,186.52,126.3Z"/></g><g class="cls-2"><path class="cls-3" d="M99.12,227.9a3.8,3.8,0,1,1-3.8-3.9A3.88,3.88,0,0,1,99.12,227.9Z"/></g><g class="cls-2"><path class="cls-3" d="M204.32,221.6a3.85,3.85,0,1,1-3.9-3.8h.1A3.93,3.93,0,0,1,204.32,221.6Z"/></g><g class="cls-2"><path class="cls-3" d="M151.12,80.2a3.78,3.78,0,0,1-3.7,3.8h-.1a3.85,3.85,0,1,1-.1-7.7,4,4,0,0,1,3.9,3.9Z"/></g><g class="cls-2"><path class="cls-3" d="M182.62,95.4a5.45,5.45,0,0,1-10.9,0,5.45,5.45,0,0,1,10.9,0Z"/></g><g class="cls-2"><polyline class="cls-3" points="205.62 234.9 104.82 234.9 104.82 235.7 205.62 235.7"/></g><g class="cls-2"><polyline class="cls-3" points="187.72 127 186.92 127 152.12 161.9 30.72 161.9 30.72 163 152.62 163 186.22 129.4"/></g><g class="cls-2"><path class="cls-3" d="M95.72,183.4a5.2,5.2,0,1,0,5.2-5.2h0A5.16,5.16,0,0,0,95.72,183.4Z"/></g><g class="cls-2"><path class="cls-3" d="M129.62,216.8a5.2,5.2,0,1,0,5.2-5.2,5.18,5.18,0,0,0-5.2,5.2Z"/></g><g class="cls-2"><path class="cls-3" d="M123.72,216.8a11,11,0,1,1,11,11A10.91,10.91,0,0,1,123.72,216.8Z"/></g><g class="cls-2"><path class="cls-3" d="M126,216.8a8.8,8.8,0,1,0,8.8-8.8h0a8.81,8.81,0,0,0-8.8,8.8Z"/></g><g class="cls-2"><path class="cls-3" d="M11.72,183a5.16,5.16,0,0,0,5.2,5.2h0a5.12,5.12,0,0,0,5.1-5.1V183a5.14,5.14,0,0,0-5.1-5.2h0A5.16,5.16,0,0,0,11.72,183Z"/></g><g class="cls-2"><path class="cls-3" d="M5.82,183a11.05,11.05,0,1,1,11.1,11,11.18,11.18,0,0,1-11.1-11Z"/></g><g class="cls-2"><path class="cls-3" d="M8.12,183a8.8,8.8,0,1,0,8.8-8.8h0A9,9,0,0,0,8.12,183Z"/></g><g class="cls-2"><line class="cls-3" x1="192.92" y1="314.6" x2="175.02" y2="314.6"/></g><g class="cls-2"><path class="cls-3" d="M191.22,314.5a1.9,1.9,0,0,0,1.9,1.9h0a1.88,1.88,0,0,0,1.8-1.9h0a1.9,1.9,0,0,0-1.9-1.9,2,2,0,0,0-1.8,1.9Z"/></g><g class="cls-2"><circle class="cls-3" cx="193.12" cy="314.5" r="4"/></g><g class="cls-2"><path class="cls-3" d="M189.92,314.5a3.15,3.15,0,1,0,6.3.3v-.4a3.15,3.15,0,1,0-6.3-.3Z"/></g><g class="cls-2"><polyline class="cls-3" points="141.42 270 147.12 270 168.82 248.5 205.72 248.5"/></g><g class="cls-2"><polyline class="cls-3" points="199.12 254.1 163.22 254.1 141.72 275.7 136.12 275.7"/></g><g class="cls-2"><path class="cls-3" d="M165.72,248.7a3.22,3.22,0,0,0,3.2,3.2,3.2,3.2,0,0,0,.1-6.4h-.1a3.22,3.22,0,0,0-3.2,3.2Z"/></g><g class="cls-2"><path class="cls-3" d="M144.62,269.7a2.2,2.2,0,1,0,4.4-.2,2.34,2.34,0,0,0-2.1-2.1,2.39,2.39,0,0,0-2.3,2.3Z"/></g><g class="cls-2"><path class="cls-3" d="M142.12,269.7a4.8,4.8,0,1,1,4.9,4.8,4.89,4.89,0,0,1-4.9-4.8Z"/></g><g class="cls-2"><path class="cls-3" d="M143.12,269.7a3.74,3.74,0,0,0,3.9,3.7,3.81,3.81,0,0,0,0-7.6,4,4,0,0,0-3.9,3.9Z"/></g><g class="cls-2"><path class="cls-3" d="M101.22,131.7a5.2,5.2,0,1,0-5.3,5.2,5.16,5.16,0,0,0,5.3-5.2Z"/></g><g class="cls-2"><path class="cls-3" d="M187.22,24.4a3,3,0,0,0-6,0,3.08,3.08,0,0,0,3,3A3,3,0,0,0,187.22,24.4Z"/></g><g class="cls-2"><path class="cls-3" d="M190.62,24.4a6.4,6.4,0,0,1-12.8,0,6.4,6.4,0,0,1,12.8,0Z"/></g><g class="cls-2"><path class="cls-3" d="M189.32,24.4a5.1,5.1,0,1,0-10.2.1,5.1,5.1,0,0,0,10.2-.1Z"/></g><g class="cls-2"><path class="cls-3" d="M174.42,96.2a5.15,5.15,0,1,0,0,.1Z"/></g><g class="cls-2"><path class="cls-3" d="M180.32,96.2a11.05,11.05,0,1,1-22.1.1,11.21,11.21,0,0,1,5.5-9.6,11.08,11.08,0,0,1,15.1,4,11.94,11.94,0,0,1,1.5,5.5Z"/></g><g class="cls-2"><path class="cls-3" d="M178,96.2a8.8,8.8,0,1,0-8.8,8.8,8.71,8.71,0,0,0,6.2-2.6,8.38,8.38,0,0,0,2.6-6.2Z"/></g><g class="cls-2"><path class="cls-3" d="M152.62,54.3a3.22,3.22,0,0,0-3.2-3.2,3.14,3.14,0,0,0-3.2,3.1h0a3.16,3.16,0,0,0,3.2,3.2A3,3,0,0,0,152.62,54.3Z"/></g><g class="cls-2"><path class="cls-3" d="M204.72,54.6a3.25,3.25,0,0,0-6.5,0,3.16,3.16,0,0,0,3.2,3.2A3.24,3.24,0,0,0,204.72,54.6Z"/></g><g class="cls-2"><path class="cls-3" d="M208.32,54.6a6.85,6.85,0,1,1-7.1-6.6h.3A6.77,6.77,0,0,1,208.32,54.6Z"/></g><g class="cls-2"><path class="cls-3" d="M206.92,54.6a5.45,5.45,0,1,0-10.9.1,5.38,5.38,0,0,0,5.4,5.4,5.55,5.55,0,0,0,5.5-5.5Z"/></g><g class="cls-2"><polyline class="cls-3" points="200.42 271.6 155.22 271.6 138.02 288.7"/></g><g class="cls-2"><polyline class="cls-3" points="135.92 289.4 154.82 270.6 200.02 270.6"/></g><g class="cls-2"><path class="cls-3" d="M158.62,271a2.94,2.94,0,0,1-2.7,2.9h-.1a2.73,2.73,0,0,1-2.8-2.8V271a3,3,0,0,1,2.8-2.9,2.88,2.88,0,0,1,2.8,2.9Z"/></g><g class="cls-2"><path class="cls-3" d="M155.72,277.1a6.05,6.05,0,1,1,6.1-6.1,6.08,6.08,0,0,1-5.9,6.1Z"/></g><g class="cls-2"><path class="cls-3" d="M155.72,266.2a4.85,4.85,0,1,0,4.9,4.8h0A4.82,4.82,0,0,0,155.72,266.2Z"/></g><g class="cls-2"><polyline class="cls-3" points="205.12 231.2 157.72 231.2 157.72 229.9 204.32 229.9"/></g><g class="cls-2"><path class="cls-3" d="M154,230.5a4.12,4.12,0,0,1,4.1-4.1,4.19,4.19,0,0,1,4.1,4.1,4.1,4.1,0,0,1-8.2,0Z"/></g><g class="cls-2"><path class="cls-3" d="M158.12,221.7a8.8,8.8,0,1,1-8.8,8.8h0A8.75,8.75,0,0,1,158.12,221.7Z"/></g><g class="cls-2"><circle class="cls-3" cx="158.12" cy="230.5" r="7"/></g><g class="cls-2"><polyline class="cls-3" points="195.92 215.6 194.72 216.9 128.12 216.9 100.52 189.3 4.32 189.3 4.32 188.7 100.82 188.7 128.32 216.2 194.42 216.2 195.52 215.2"/></g><g class="cls-2"><path class="cls-3" d="M159.42,246.8a4.12,4.12,0,0,1,4.1-4.1,4.1,4.1,0,1,1-4.1,4.1Z"/></g><g class="cls-2"><polyline class="cls-3" points="160.62 152.1 109.52 152.1 109.52 151.3 163.32 151.3"/></g><g class="cls-2"><path class="cls-3" d="M107.22,151.7a2.56,2.56,0,0,1,2.6-2.5,2.5,2.5,0,1,1-2.6,2.5Z"/></g><g class="cls-2"><path class="cls-3" d="M109.72,146.2a5.45,5.45,0,1,1-5.4,5.5v-.1A5.51,5.51,0,0,1,109.72,146.2Z"/></g><g class="cls-2"><path class="cls-3" d="M109.72,156a4.35,4.35,0,1,0-4.3-4.4,4.35,4.35,0,0,0,4.3,4.4Z"/></g><g class="cls-2"><polyline class="cls-3" points="104.32 142.8 132.22 142.8 149.42 125.7 149.42 125.7 194.12 125.7 194.12 126.1 149.52 126.1 132.42 143.2 104.72 143.2"/></g><g class="cls-2"><polyline class="cls-3" points="65.52 162.9 104.22 201.6 171.62 201.6 205.72 235.6"/></g><g class="cls-2"><line class="cls-3" x1="54.02" y1="151.3" x2="65.52" y2="162.9"/></g><g class="cls-2"><line class="cls-3" x1="61.52" y1="163" x2="50.62" y2="152.1"/></g><g class="cls-2"><polyline class="cls-3" points="205.62 239.7 170.42 204.5 103.02 204.5 61.52 163"/></g><g class="cls-2"><line class="cls-3" x1="198.82" y1="61.4" x2="138.92" y2="61.4"/></g><g class="cls-2"><line class="cls-3" x1="135.32" y1="55.4" x2="199.52" y2="55.4"/></g><g class="cls-2"><line class="cls-3" x1="133.32" y1="55.4" x2="135.32" y2="55.4"/></g><g class="cls-2"><line class="cls-3" x1="105.52" y1="144.1" x2="168.92" y2="144.1"/></g><g class="cls-2"><line class="cls-3" x1="165.72" y1="147.1" x2="107.42" y2="147.1"/></g><g class="cls-2"><line class="cls-3" x1="168.92" y1="144.1" x2="170.02" y2="144.1"/></g><g class="cls-2"><polyline class="cls-3" points="169.12 324 172.52 327.4 203.02 327.4"/></g><g class="cls-2"><polyline class="cls-3" points="203.02 330.3 171.42 330.3 168.42 327.4"/></g><g class="cls-2"><path class="cls-3" d="M178.22,31.4l22.7-22.7"/></g><g class="cls-2"><path class="cls-3" d="M200.62,12.1l-22,22"/></g><g class="cls-2"><polyline class="cls-3" points="56.82 152.2 95.72 191.2 145.62 191.2 184.82 230.3 205.12 230.3"/></g><g class="cls-2"><polyline class="cls-3" points="205.62 232.5 183.92 232.5 144.62 193.4 94.82 193.4 52.02 150.6"/></g><g class="cls-2"><polyline class="cls-3" points="150.72 83.1 192.92 83.1 200.62 90.8"/></g><g class="cls-2"><polyline class="cls-3" points="200.42 96.8 191.12 87.5 153.92 87.5"/></g><g class="cls-2"><line class="cls-3" x1="109.52" y1="148.7" x2="165.12" y2="148.7"/></g><g class="cls-2"><line class="cls-3" x1="165.12" y1="148.7" x2="166.42" y2="148.7"/></g><g class="cls-2"><path class="cls-3" d="M116.72,106.3l45,45"/></g><g class="cls-2"><path class="cls-3" d="M158.62,154.5l-46.7-46.7H82.82"/></g><g class="cls-2"><polyline class="cls-3" points="16.72 151.6 41.62 176.5 154.22 176.5"/></g><g class="cls-2"><polyline class="cls-3" points="158.22 180.9 39.72 180.9 11.02 152.2"/></g><g class="cls-2"><polyline class="cls-3" points="138.12 276 146.32 284.2 200.02 284.2"/></g><g class="cls-2"><polyline class="cls-3" points="200.02 286.4 145.42 286.4 136.92 277.9"/></g><g class="cls-2"><path class="cls-3" d="M11,162.6a4.44,4.44,0,0,1-4.4,4.4,4.4,4.4,0,0,1,0-8.8A4.37,4.37,0,0,1,11,162.6Z"/></g><g class="cls-2"><path class="cls-3" d="M150.22,284.2a4.45,4.45,0,1,1-4.5-4.4h.1A4.44,4.44,0,0,1,150.22,284.2Z"/></g><g class="cls-2"><path class="cls-3" d="M162.72,68.4a4.4,4.4,0,1,1-4.4-4.4h0A4.44,4.44,0,0,1,162.72,68.4Z"/></g><g class="cls-2"><path class="cls-3" d="M198.72,85.7a6.2,6.2,0,1,1-6.2-6.2,6.17,6.17,0,0,1,6.2,6.2Z"/></g><g class="cls-2"><polyline class="cls-3" points="147.82 78.4 181.82 44.4 200.42 44.4"/></g><g class="cls-2"><polyline class="cls-3" points="200.42 46.3 182.62 46.3 148.42 80.5"/></g><g class="cls-2"><path class="cls-3" d="M134.32,57.4h20.9l13-13"/></g><g class="cls-2"><path class="cls-3" d="M170,45.3l-14,14h-20.7"/></g><g class="cls-2"><polyline class="cls-3" points="55.12 149.8 92.72 187.4 136.22 187.4 170.42 221.6 203.02 221.6 203.02 223.6 203.02 223.6 169.62 223.6 135.42 189.3 91.92 189.3 52.92 150.4"/></g><g class="cls-2"><polyline class="cls-3" points="195.52 116.4 175.92 96.9 153.42 96.9"/></g><g class="cls-2"><polyline class="cls-3" points="156.72 93 177.52 93 197.12 112.6 198.82 112.6"/></g><g class="cls-2"><polyline class="cls-3" points="101.22 150.3 158.42 150.3 182.42 126.3 186.52 126.3"/></g><g class="cls-2"><polyline class="cls-3" points="186.52 128.2 183.22 128.2 159.22 152.2 100.62 152.2"/></g><g class="cls-2"><polyline class="cls-3" points="32.82 162 45.42 174.6 152.12 174.6"/></g><g class="cls-2"><polyline class="cls-3" points="155.82 178.4 43.82 178.4 27.32 161.9"/></g><g class="cls-2"><polyline class="cls-3" points="4.32 161.5 14.82 161.5 14.82 163.4 6.62 163.4"/></g><g class="cls-2"><path class="cls-3" d="M62.42,162.7a4,4,0,0,0,4,4,4,4,0,0,0,3.4-4.5,4,4,0,0,0-3.4-3.4A3.93,3.93,0,0,0,62.42,162.7Z"/></g><g class="cls-2"><path class="cls-3" d="M26.42,162.3a5.2,5.2,0,0,0,10.4,0,5.16,5.16,0,0,0-5.2-5.2,5.23,5.23,0,0,0-5.2,5.2Z"/></g><g class="cls-2"><path class="cls-3" d="M148.52,162.5a3.6,3.6,0,1,0,3.6-3.6H152A3.7,3.7,0,0,0,148.52,162.5Z"/></g><g class="cls-2"><path class="cls-3" d="M144.52,162.5a7.65,7.65,0,0,1,15.3.1,7.6,7.6,0,0,1-7.6,7.6,7.7,7.7,0,0,1-7.7-7.7Z"/></g><g class="cls-2"><path class="cls-3" d="M155.32,157.2a5.71,5.71,0,0,0-3.2-.9,6.06,6.06,0,0,0-6.1,6.1h0a6.05,6.05,0,1,0,12.1-.1,5.87,5.87,0,0,0-2.8-5.1"/></g><g class="cls-2"><polyline class="cls-3" points="17.92 183.6 100.12 183.6 135.12 218.5 135.12 218.5 208.52 218.5"/></g><g class="cls-2"><polyline class="cls-3" points="197.12 216.9 135.82 216.9 100.82 182 17.92 182"/></g><g class="cls-2"><line class="cls-3" x1="210.62" y1="216.9" x2="197.12" y2="216.9"/></g><g class="cls-2"><line class="cls-3" x1="147.32" y1="77.3" x2="200.42" y2="77.3"/></g><g class="cls-2"><line class="cls-3" x1="200.42" y1="75.7" x2="145.42" y2="75.7"/></g><g class="cls-2"><path class="cls-3" d="M151.52,76.9a5.23,5.23,0,0,0-5.4-5,5.3,5.3,0,0,0-5,5,5.2,5.2,0,0,0,10.4,0Z"/></g><g class="cls-2"><path class="cls-3" d="M115.92,111a5.2,5.2,0,1,0-5.2,5.2h0A5.1,5.1,0,0,0,115.92,111Z"/></g><g class="cls-2"><path class="cls-3" d="M121.82,111a11,11,0,1,1-11-11A11.23,11.23,0,0,1,121.82,111Z"/></g><g class="cls-2"><path class="cls-3" d="M119.52,111a8.8,8.8,0,1,0-8.9,8.7h0A8.75,8.75,0,0,0,119.52,111Z"/></g><g class="cls-2"><polyline class="cls-3" points="174.02 24.2 185.82 24.2 200.32 38.7"/></g><g class="cls-2"><polyline class="cls-3" points="200.42 37.7 186.22 23.4 186.22 23.4 173.72 23.4"/></g><g class="cls-2"><polyline class="cls-3" points="138.92 44.7 149.42 55.2 200.42 55.2"/></g><g class="cls-2"><polyline class="cls-3" points="200.42 54.2 149.82 54.2 140.02 44.4"/></g><g class="cls-2"><path class="cls-3" d="M124.92,216a3.35,3.35,0,1,1,3.3,3.4,3.35,3.35,0,0,1-3.3-3.4Z"/></g><g class="cls-2"><path class="cls-3" d="M191.12,216.2a3.4,3.4,0,1,1,3.4,3.4h-.1A3.35,3.35,0,0,1,191.12,216.2Z"/></g><g class="cls-2"><path class="cls-3" d="M98.42,189.3a2.4,2.4,0,0,1,4.8,0,2.5,2.5,0,0,1-2.4,2.4,2.31,2.31,0,0,1-2.4-2.4Z"/></g><g class="cls-2"><path class="cls-3" d="M100.82,184.3a5.12,5.12,0,0,1,5.1,5.1h0a5.1,5.1,0,1,1-5.1-5.1Z"/></g><g class="cls-2"><path class="cls-3" d="M100.82,193.4a4.05,4.05,0,1,0-4.1-4.1A4,4,0,0,0,100.82,193.4Z"/></g><g class="cls-2"><polyline class="cls-3" points="140.82 268.7 163.32 246.1 163.32 246.1 203.02 246.1"/></g><g class="cls-2"><polyline class="cls-3" points="203.02 246.1 235.52 246.1 235.52 247.1 163.72 247.1 139.82 271"/></g><g class="cls-2"><path class="cls-3" d="M130.22,142.8a2.06,2.06,0,1,1,1.9,2.2,1.4,1.4,0,0,1-.9-.3A1.81,1.81,0,0,1,130.22,142.8Z"/></g><g class="cls-2"><path class="cls-3" d="M148.92,126.2a1.47,1.47,0,0,1,1.5-1.5,1.45,1.45,0,0,1,1.5,1.4,1.47,1.47,0,0,1-1.5,1.5h-.1A1.43,1.43,0,0,1,148.92,126.2Z"/></g><g class="cls-2"><path class="cls-3" d="M150.42,123a3.16,3.16,0,0,1,3.2,3.2h0a3.15,3.15,0,0,1-6.3,0A3.07,3.07,0,0,1,150.42,123Z"/></g><g class="cls-2"><path class="cls-3" d="M150.42,128.7a2.5,2.5,0,1,0-2.5-2.5A2.48,2.48,0,0,0,150.42,128.7Z"/></g><g class="cls-2"><polyline class="cls-3" points="20.22 161.4 37.82 161.4 54.92 178.6 95.82 178.6 113.02 161.4 113.02 161.4 157.72 161.4 157.72 162 150.42 162"/></g><g class="cls-2"><line class="cls-3" x1="5.82" y1="161.4" x2="20.22" y2="161.4"/></g><g class="cls-2"><polyline class="cls-3" points="150.42 162 113.22 162 96.02 179.2 54.72 179.2 37.62 162 4.32 162"/></g><g class="cls-2"><path class="cls-3" d="M110.62,161.8a2.63,2.63,0,0,1,2.5-2.6,2.6,2.6,0,0,1,0,5.2h0a2.56,2.56,0,0,1-2.5-2.6Z"/></g><g class="cls-2"><path class="cls-3" d="M52.62,178.4a2.55,2.55,0,0,1,5.1.1,2.48,2.48,0,0,1-2.5,2.5,2.62,2.62,0,0,1-2.6-2.4Z"/></g><g class="cls-2"><path class="cls-3" d="M152.32,161.4a4.87,4.87,0,0,1,.1-1.2"/></g><g class="cls-2"><path class="cls-3" d="M93.72,179a1.75,1.75,0,1,1,1.8,1.7h-.1A1.75,1.75,0,0,1,93.72,179Z"/></g><g class="cls-2"><path class="cls-3" d="M95.42,175.2a3.8,3.8,0,0,1,3.8,3.8,3.65,3.65,0,0,1-3.8,3.7,3.75,3.75,0,0,1,0-7.5Z"/></g><g class="cls-2"><path class="cls-3" d="M95.42,181.9a3,3,0,1,0-3-3,2.72,2.72,0,0,0,.9,2.1A2.88,2.88,0,0,0,95.42,181.9Z"/></g><g class="cls-2"><path class="cls-3" d="M35.92,161.7a1.75,1.75,0,0,1,3.5.1,1.69,1.69,0,0,1-1.7,1.7,1.79,1.79,0,0,1-1.8-1.8Z"/></g><g class="cls-2"><path class="cls-3" d="M37.72,158a3.85,3.85,0,0,1,3.8,3.7h0a3.8,3.8,0,0,1-7.6,0h0a3.71,3.71,0,0,1,3.8-3.7Z"/></g><g class="cls-2"><circle class="cls-3" cx="37.72" cy="161.7" r="3"/></g><g class="cls-2"><path class="cls-3" d="M156.52,158.9l-6.2,6.2a3.57,3.57,0,0,0,0,4.9l31.3,31.3"/></g><g class="cls-2"><path class="cls-3" d="M54.22,151.3h52.1a3.46,3.46,0,0,0,3.5-3.4,3.14,3.14,0,0,0-.7-2.1l-25.4-33.6a3.47,3.47,0,0,1,.7-4.8,3.77,3.77,0,0,1,2.1-.7h75.4a3.46,3.46,0,0,0,3.5-3.4,4.14,4.14,0,0,0-.5-1.9L133,51.1a3.53,3.53,0,0,1,1.1-4.8,4.07,4.07,0,0,1,1.8-.5h45.2a3.46,3.46,0,0,0,3.5-3.4,3.19,3.19,0,0,0-.3-1.4L168.52,6.1a3.52,3.52,0,0,1,1.7-4.6,3.53,3.53,0,0,1,1.4-.3h30V114c-.1.1-.2.2-.3.2l-44.7,44.7"/></g><g class="cls-2"><path class="cls-3" d="M49.82,151.3h4.5"/></g><g class="cls-2"><path class="cls-3" d="M142.32,269.2l22.4-35.4a3.55,3.55,0,0,0-1.1-4.8,3.2,3.2,0,0,0-1.9-.5H86.52a3.39,3.39,0,0,1-3.4-3.5,3.32,3.32,0,0,1,.7-2.1l25.4-33.6a3.3,3.3,0,0,0-.7-4.8,3.14,3.14,0,0,0-2.1-.7H21.62a3.36,3.36,0,0,1-2.9-1.6L3,156.6a3.53,3.53,0,0,1,1.1-4.8,3.74,3.74,0,0,1,1.8-.5h43.9"/></g><g class="cls-2"><path class="cls-3" d="M181.62,201.3l19.6,19.6c.1.1.2.2.3.2V333.9h-30a3.46,3.46,0,0,1-3.5-3.4,3.19,3.19,0,0,1,.3-1.4l15.9-34.9a3.52,3.52,0,0,0-1.7-4.6,3.19,3.19,0,0,0-1.4-.3h-45.2a3.46,3.46,0,0,1-3.5-3.4,4.14,4.14,0,0,1,.5-1.9l9.4-14.9"/></g><g class="cls-2"><polygon class="cls-3" points="136.82 268.7 95.22 227.1 80.02 227.1 80.02 229 94.42 229 136.02 270.6 200.02 270.6 200.42 268.7 136.82 268.7"/></g><g class="cls-2"><polygon class="cls-3" points="83.92 209.5 193.22 209.5 186.12 207.3 83.92 207.3 83.92 209.5"/></g><path class="cls-4" d="M189.12,210,200,220.9l.3.2V333.7h-30a3.46,3.46,0,0,1-3.5-3.4,3.19,3.19,0,0,1,.3-1.4l15.8-34.8a3.52,3.52,0,0,0-1.7-4.6,3.19,3.19,0,0,0-1.4-.3h-45.1a3.46,3.46,0,0,1-3.5-3.4,3.29,3.29,0,0,1,.6-1.9l31.8-50.2a3.55,3.55,0,0,0-1.1-4.8,4.07,4.07,0,0,0-1.8-.5H85.42a3.46,3.46,0,0,1-3.4-3.5,2.88,2.88,0,0,1,.7-2l25.4-33.5a3.47,3.47,0,0,0-.7-4.8,3.14,3.14,0,0,0-2.1-.7H20.62a3.36,3.36,0,0,1-2.9-1.6L2,156.8a3.41,3.41,0,0,1,1.1-4.7,3.74,3.74,0,0,1,1.8-.5h100.3a3.4,3.4,0,0,0,3.4-3.5,3.32,3.32,0,0,0-.7-2.1l-25.4-33.5a3.4,3.4,0,0,1,.8-4.8,3.72,3.72,0,0,1,2-.7h75.3a3.42,3.42,0,0,0,3-5.2l-31.8-50.5a3.46,3.46,0,0,1,1.1-4.8,3.2,3.2,0,0,1,1.9-.5h45a3.46,3.46,0,0,0,3.5-3.4,3.19,3.19,0,0,0-.3-1.4L167.22,6.4a3.52,3.52,0,0,1,1.7-4.6,3.19,3.19,0,0,1,1.4-.3h30V114.1l-.3.2-37,37-3.6,3.6-10.2,10.2a3.57,3.57,0,0,0,0,4.9l39.9,40"/><path class="cls-5" d="M215.45,210.29l39.93-40a3.57,3.57,0,0,0,0-4.9l-10.21-10.21-3.6-3.6-37-37-.3-.2V1.5h30a3.19,3.19,0,0,1,1.4.3,3.49,3.49,0,0,1,1.71,4.61L221.65,41.24a3.19,3.19,0,0,0-.3,1.4,3.4,3.4,0,0,0,3.5,3.4H270a4.14,4.14,0,0,1,1.9.5,3.52,3.52,0,0,1,1.1,4.81l-31.83,50.24a4.07,4.07,0,0,0-.5,1.8,3.4,3.4,0,0,0,3.5,3.41h75.37a3.06,3.06,0,0,1,2,.7,3.49,3.49,0,0,1,.8,4.8l-25.42,33.53a3.14,3.14,0,0,0-.7,2.1,3.46,3.46,0,0,0,3.4,3.51H399.81a3.74,3.74,0,0,1,1.8.5,3.41,3.41,0,0,1,1.11,4.7L387,182.16a3.34,3.34,0,0,1-2.9,1.61H299.42a3.32,3.32,0,0,0-2.1.7,3.47,3.47,0,0,0-.7,4.8L322,222.8a3.72,3.72,0,0,1,.7,2,3.47,3.47,0,0,1-3.4,3.51H244a3.45,3.45,0,0,0-1.8.5,3.51,3.51,0,0,0-1.1,4.8l31.83,50.25a3.29,3.29,0,0,1,.6,1.9,3.46,3.46,0,0,1-3.5,3.4H224.85a3.19,3.19,0,0,0-1.4.3,3.49,3.49,0,0,0-1.7,4.61l15.82,34.83a3.19,3.19,0,0,1,.3,1.4,3.4,3.4,0,0,1-3.51,3.4h-30V221.4l.3-.2,10.81-10.91"/></g></g></svg>