<svg version="1.2" baseProfile="tiny-ps" xmlns="http://www.w3.org/2000/svg" viewBox="0 0 758 97" width="758" height="97">
	<title>&lt;Group&gt;</title>
	<style>
		tspan { white-space:pre }
		.shp0 { fill: #97c93d } 
		.shp1 { fill: #c8232a } 
	</style>
	<g id="&lt;Group&gt;">
		<path id="&lt;Compound Path&gt;" fill-rule="evenodd" class="shp0" d="M690.66 30.32C690.66 33.99 690.23 37.51 689.37 40.88C688.51 44.25 687.3 47.38 685.73 50.28C684.15 53.18 682.25 55.81 680.02 58.18C677.79 60.55 675.29 62.56 672.52 64.23C669.74 65.9 666.74 67.19 663.5 68.11C660.25 69.03 656.84 69.49 653.26 69.49C648.77 69.49 644.74 68.7 641.17 67.13C637.61 65.56 634.57 63.41 632.08 60.68C629.59 57.95 627.68 54.74 626.35 51.05C625.03 47.35 624.37 43.37 624.37 39.1C624.37 35.43 624.8 31.9 625.65 28.52C626.51 25.13 627.73 21.99 629.3 19.1C630.87 16.2 632.78 13.56 635.03 11.2C637.27 8.83 639.78 6.81 642.55 5.14C645.33 3.47 648.33 2.18 651.58 1.26C654.82 0.34 658.24 -0.12 661.86 -0.12C666.32 -0.12 670.33 0.67 673.9 2.24C677.47 3.82 680.49 5.98 682.97 8.72C685.44 11.46 687.35 14.69 688.67 18.39C689.99 22.1 690.66 26.08 690.66 30.32ZM675.04 30.69C675.04 27.88 674.71 25.34 674.04 23.05C673.37 20.76 672.39 18.79 671.09 17.16C669.8 15.52 668.22 14.26 666.35 13.37C664.48 12.48 662.36 12.04 659.99 12.04C656.87 12.04 654.08 12.68 651.62 13.98C649.16 15.27 647.06 17.09 645.33 19.42C643.6 21.76 642.28 24.57 641.36 27.86C640.44 31.15 639.98 34.79 639.98 38.78C639.98 41.58 640.31 44.12 640.96 46.4C641.62 48.67 642.58 50.62 643.84 52.24C645.1 53.86 646.67 55.12 648.54 56C650.41 56.89 652.54 57.34 654.94 57.34C658.06 57.34 660.86 56.7 663.33 55.42C665.81 54.14 667.91 52.33 669.64 50C671.37 47.66 672.71 44.85 673.64 41.58C674.58 38.31 675.04 34.68 675.04 30.69Z" />
		<path id="&lt;Compound Path&gt;" class="shp0" d="M353.81 32.37L339.03 0.58L352.87 0.58C353.87 0.58 354.58 0.72 355 0.98C355.42 1.25 355.77 1.69 356.05 2.31L365.03 23.82C365.18 23.51 365.35 23.21 365.54 22.93C365.73 22.65 365.93 22.34 366.15 21.99L378.12 2.55C378.55 1.83 379.03 1.32 379.54 1.03C380.06 0.73 380.67 0.58 381.39 0.58L397.38 0.58L374.7 31.62L391.11 68.7L377.46 68.7C376.46 68.7 375.69 68.45 375.12 67.95C374.56 67.45 374.16 66.89 373.91 66.26L363.86 41.25C363.73 41.47 363.6 41.68 363.46 41.86C363.32 42.05 363.19 42.24 363.06 42.42L348.01 66.26C347.42 67.17 346.73 67.8 345.95 68.16C345.17 68.52 344.33 68.7 343.43 68.7L328.19 68.7L353.81 32.37Z" />
		<path id="&lt;Compound Path&gt;" fill-rule="evenodd" class="shp0" d="M453.85 68.7L442.07 68.7C440.76 68.7 439.71 68.39 438.91 67.78C438.12 67.18 437.64 66.37 437.49 65.38L435.38 53.13L412.24 53.13L407.19 65.38C406.85 66.25 406.18 67.02 405.18 67.69C404.18 68.36 403.08 68.7 401.86 68.7L389.9 68.7L422.43 0.58L438.05 0.58L453.85 68.7ZM416.5 42.75L433.61 42.75L430.29 23.3C430.01 21.68 429.7 20.04 429.37 18.37C429.05 16.7 428.77 15.18 428.56 13.81C428.31 14.56 427.98 15.41 427.57 16.36C427.17 17.31 426.77 18.24 426.38 19.14C425.99 20.05 425.62 20.89 425.26 21.67C424.9 22.45 424.65 23.02 424.49 23.4L416.5 42.75Z" />
		<path id="&lt;Compound Path&gt;" class="shp0" d="M477.78 28.45L480.03 28.45C481.12 28.45 482.08 28.27 482.92 27.91C483.77 27.55 484.45 26.98 484.98 26.2L501.16 3.62C502.03 2.41 503.03 1.6 504.15 1.19C505.27 0.79 506.58 0.58 508.08 0.58L521.26 0.58L499.85 28.4C499.13 29.36 498.38 30.16 497.6 30.78C496.82 31.41 496.01 31.94 495.17 32.37C496.23 32.81 497.17 33.39 497.98 34.13C498.79 34.86 499.47 35.85 500.03 37.09L514.43 68.7L500.88 68.7C500 68.7 499.26 68.63 498.66 68.51C498.05 68.38 497.53 68.2 497.11 67.97C496.69 67.74 496.34 67.44 496.06 67.08C495.78 66.72 495.55 66.33 495.36 65.89L484.79 41.96C484.39 41.05 483.8 40.42 483.04 40.06C482.28 39.7 481.24 39.52 479.93 39.52L476.43 39.52L472.83 68.7L457.68 68.7L466 0.58L481.24 0.58L477.78 28.45Z" />
		<path id="&lt;Compound Path&gt;" fill-rule="evenodd" class="shp0" d="M577.54 68.7L565.76 68.7C564.45 68.7 563.4 68.39 562.61 67.78C561.81 67.18 561.34 66.37 561.18 65.38L559.08 53.13L535.94 53.13L530.89 65.38C530.54 66.25 529.87 67.02 528.88 67.69C527.88 68.36 526.77 68.7 525.56 68.7L513.59 68.7L546.13 0.58L561.74 0.58L577.54 68.7ZM540.19 42.75L557.3 42.75L553.98 23.3C553.7 21.68 553.4 20.04 553.07 18.37C552.74 16.7 552.47 15.18 552.25 13.81C552 14.56 551.67 15.41 551.27 16.36C550.86 17.31 550.47 18.24 550.08 19.14C549.69 20.05 549.31 20.89 548.96 21.67C548.6 22.45 548.34 23.02 548.18 23.4L540.19 42.75Z" />
		<path id="&lt;Compound Path&gt;" class="shp0" d="M628.22 0.58L626.63 12.64L609.33 12.64L602.41 68.7L587.27 68.7L594.09 12.64L576.7 12.64L578.2 0.58L628.22 0.58Z" />
		<path id="&lt;Compound Path&gt;" class="shp1" d="M0.28 1.48L12.1 1.48C13.39 1.48 14.43 1.78 15.22 2.38C16 2.98 16.47 3.77 16.63 4.76L21.34 41C21.46 41.86 21.55 42.75 21.61 43.66C21.67 44.56 21.74 45.39 21.8 46.13C21.86 47.02 21.89 47.88 21.89 48.71C22.35 47.27 22.84 45.9 23.34 44.63C23.85 43.35 24.32 42.14 24.75 41L38.51 4.76C38.85 3.92 39.5 3.17 40.45 2.49C41.4 1.82 42.51 1.48 43.78 1.48L47.28 1.48C48.58 1.48 49.63 1.78 50.45 2.38C51.26 2.98 51.75 3.77 51.9 4.76L57.07 41C57.23 42.08 57.39 43.26 57.56 44.53C57.73 45.81 57.87 47.14 58 48.53C58.4 47.14 58.8 45.82 59.2 44.56C59.6 43.3 60 42.11 60.4 41L73.7 4.76C74 3.89 74.66 3.13 75.66 2.47C76.66 1.81 77.79 1.48 79.05 1.48L90.96 1.48L63.54 68.75L49.87 68.75L43.68 26.27C43.59 25.6 43.48 24.85 43.36 24.03C43.24 23.22 43.13 22.36 43.04 21.47C42.7 22.36 42.37 23.22 42.04 24.03C41.72 24.85 41.44 25.6 41.19 26.27L24.75 68.75L11.18 68.75L0.28 1.48Z" />
		<path id="&lt;Compound Path&gt;" class="shp1" d="M142.4 68.75L127.25 68.75L130.76 40.12L106.48 40.12L102.97 68.75L87.82 68.75L96.13 1.48L111.28 1.48L107.77 29.87L132.06 29.87L135.57 1.48L150.71 1.48L142.4 68.75Z" />
		<path id="&lt;Compound Path&gt;" class="shp1" d="M227.91 58.73L240.93 58.73L245.27 22.53L246.24 18.38L237.15 25.4C236.62 25.8 236.11 26.06 235.6 26.18C235.09 26.3 234.62 26.37 234.19 26.37C233.39 26.37 232.71 26.2 232.16 25.88C231.6 25.56 231.2 25.21 230.96 24.84L227.36 19.02L250.35 1.43L261.8 1.43L254.74 58.73L266.05 58.73L264.76 68.75L226.71 68.75L227.91 58.73Z" />
		<path id="&lt;Compound Path&gt;" class="shp1" d="M314.71 14.96C314.19 15.7 313.66 16.24 313.12 16.58C312.58 16.92 311.94 17.08 311.2 17.08C310.5 17.08 309.79 16.85 309.08 16.39C308.37 15.93 307.58 15.42 306.7 14.87C305.83 14.31 304.82 13.81 303.68 13.34C302.54 12.88 301.2 12.65 299.66 12.65C298.25 12.65 297.01 12.85 295.94 13.25C294.88 13.65 294 14.21 293.29 14.91C292.58 15.62 292.05 16.45 291.7 17.41C291.34 18.36 291.17 19.41 291.17 20.55C291.17 21.78 291.51 22.81 292.2 23.64C292.9 24.47 293.82 25.2 294.98 25.83C296.13 26.47 297.43 27.04 298.88 27.57C300.32 28.09 301.81 28.66 303.33 29.27C304.86 29.89 306.35 30.6 307.81 31.4C309.27 32.2 310.58 33.2 311.74 34.4C312.89 35.6 313.81 37.05 314.51 38.74C315.2 40.43 315.55 42.46 315.55 44.83C315.55 48.22 314.96 51.41 313.79 54.39C312.62 57.38 310.94 59.99 308.76 62.22C306.57 64.45 303.92 66.22 300.79 67.53C297.67 68.84 294.15 69.49 290.24 69.49C288.3 69.49 286.36 69.27 284.4 68.84C282.45 68.41 280.57 67.8 278.77 67.02C276.97 66.23 275.3 65.3 273.76 64.23C272.22 63.15 270.91 61.95 269.83 60.62L275.19 53.61C275.59 53.08 276.11 52.65 276.76 52.31C277.41 51.98 278.05 51.81 278.7 51.81C279.56 51.81 280.4 52.11 281.22 52.71C282.03 53.31 282.93 53.97 283.92 54.69C284.9 55.42 286.05 56.08 287.36 56.68C288.66 57.28 290.27 57.58 292.18 57.58C294.98 57.58 297.15 56.82 298.67 55.29C300.19 53.77 300.95 51.51 300.95 48.53C300.95 47.14 300.61 46 299.92 45.11C299.22 44.22 298.31 43.46 297.19 42.85C296.07 42.23 294.78 41.69 293.34 41.21C291.89 40.73 290.41 40.22 288.9 39.66C287.39 39.11 285.92 38.46 284.47 37.7C283.02 36.95 281.74 35.96 280.62 34.75C279.49 33.53 278.58 32.04 277.89 30.27C277.2 28.5 276.85 26.32 276.85 23.73C276.85 20.75 277.41 17.88 278.54 15.12C279.66 12.37 281.27 9.93 283.36 7.8C285.46 5.68 288 3.99 290.98 2.72C293.97 1.46 297.32 0.83 301.05 0.83C302.96 0.83 304.81 1.03 306.61 1.43C308.41 1.83 310.1 2.39 311.67 3.09C313.24 3.8 314.67 4.64 315.96 5.61C317.25 6.58 318.35 7.63 319.24 8.77L314.71 14.96Z" />
		<g id="&lt;Group&gt;">
			<path id="&lt;Compound Path&gt;" fill-rule="evenodd" class="shp1" d="M215.7 42.32C213.48 50.31 208.23 56.96 200.92 61.03C194.57 64.57 187.32 65.8 180.2 64.59C179.14 64.41 178.08 64.17 177.03 63.88C168.92 61.64 162.17 56.43 158.02 49.19C153.86 41.96 152.8 33.57 155.03 25.58C157.26 17.58 162.51 10.94 169.82 6.87C177.12 2.79 185.61 1.78 193.71 4.02C201.81 6.25 208.56 11.47 212.72 18.7C216.87 25.94 217.93 34.32 215.7 42.32ZM191.75 11.03C178.93 7.49 165.67 14.88 162.14 27.54C158.61 40.2 166.15 53.33 178.98 56.87C191.81 60.41 205.07 53.01 208.6 40.36C212.12 27.7 204.58 14.57 191.75 11.03Z" />
			<path id="&lt;Path&gt;" class="shp1" d="M213.73 62.18L209.64 57.34C206.79 59.74 203.75 61.9 200.55 63.82L203.87 69.3C207.42 67.3 210.73 64.91 213.73 62.18Z" />
			<g id="&lt;Group&gt;">
				<path id="&lt;Compound Path&gt;" fill-rule="evenodd" class="shp1" d="M230.32 94.57C228.62 95.97 226.47 96.63 224.27 96.43C224.04 96.4 223.83 96.38 223.61 96.34C221.66 96.01 219.92 95.02 218.64 93.5C218.38 93.2 218.12 92.83 217.89 92.46L205 71.17C208.66 69.12 212.06 66.67 215.15 63.86L231.35 83.04C234.29 86.51 233.83 91.69 230.32 94.57ZM227.56 88.47C227.83 86.88 226.74 85.37 225.13 85.1C223.52 84.82 222 85.89 221.72 87.48C221.45 89.07 222.54 90.58 224.15 90.86C225.76 91.13 227.29 90.06 227.56 88.47Z" />
				<path id="&lt;Compound Path&gt;" fill-rule="evenodd" class="shp1" d="M224.13 90.96C222.46 90.68 221.33 89.11 221.62 87.46C221.9 85.82 223.48 84.71 225.15 84.99C226.82 85.28 227.95 86.85 227.67 88.49C227.39 90.14 225.8 91.25 224.13 90.96ZM225.11 85.21C223.57 84.94 222.09 85.97 221.83 87.5C221.57 89.03 222.62 90.48 224.17 90.75C225.72 91.01 227.19 89.98 227.45 88.46C227.71 86.93 226.66 85.47 225.11 85.21Z" />
			</g>
		</g>
		<path id="&lt;Compound Path&gt;" class="shp0" d="M749.41 67.28L734.26 67.28L737.77 38.65L713.49 38.65L709.98 67.28L694.83 67.28L703.14 0L718.29 0L714.78 28.4L739.07 28.4L742.57 0L757.72 0L749.41 67.28Z" />
	</g>
</svg>