<?xml version="1.0" standalone="no"?>
<!DOCTYPE svg PUBLIC "-//W3C//DTD SVG 20010904//EN"
 "http://www.w3.org/TR/2001/REC-SVG-20010904/DTD/svg10.dtd">
<svg version="1.0" xmlns="http://www.w3.org/2000/svg"
 width="810.000000pt" height="810.000000pt" viewBox="0 0 810.000000 810.000000"
 preserveAspectRatio="xMidYMid meet">
<metadata>
Created by potrace 1.14, written by Peter Selinger 2001-2017
</metadata>
<g transform="translate(0.000000,810.000000) scale(0.100000,-0.100000)"
fill="#000000" stroke="none">
<path d="M3340 7378 c-28 -28 -32 -37 -27 -72 2 -23 17 -68 32 -101 16 -33 40
-87 56 -120 15 -33 45 -100 68 -148 23 -49 41 -90 41 -92 0 -1 14 -33 32 -71
17 -38 32 -71 33 -74 1 -3 11 -26 23 -52 41 -87 43 -96 26 -113 -15 -14 -37
-17 -124 -14 -14 0 -32 0 -40 0 -8 0 -62 0 -120 0 -58 0 -130 0 -160 0 -30 0
-102 0 -160 0 -58 1 -112 1 -120 0 -8 -1 -26 -1 -40 0 -14 0 -32 0 -40 0 -8 0
-42 -1 -76 0 -73 0 -108 -12 -130 -46 -34 -53 -28 -71 72 -226 35 -55 64 -102
64 -105 0 -3 5 -10 10 -17 6 -7 64 -97 130 -202 65 -104 149 -237 187 -295 37
-58 68 -107 68 -110 3 -14 41 -70 48 -70 4 0 7 -5 7 -10 0 -6 12 -29 26 -51
34 -55 27 -93 -17 -87 -16 3 -32 1 -35 -3 -2 -5 -15 -4 -27 0 -12 5 -32 5 -44
0 -12 -4 -25 -5 -27 0 -3 4 -26 5 -50 1 -25 -4 -49 -3 -55 3 -5 5 -11 5 -15
-2 -4 -6 -15 -7 -30 -1 -12 4 -29 5 -36 0 -7 -5 -23 -5 -34 0 -12 4 -30 4 -42
0 -11 -5 -27 -5 -34 0 -7 4 -24 4 -39 0 -14 -4 -35 -4 -46 0 -11 4 -30 4 -41
-1 -12 -4 -24 -5 -27 -2 -5 5 -36 5 -150 2 -26 -1 -50 1 -54 4 -3 4 -13 2 -23
-3 -10 -5 -20 -6 -24 -3 -7 8 -95 8 -102 0 -3 -3 -18 -1 -34 3 -16 4 -31 6
-34 2 -8 -7 -95 -6 -103 1 -3 4 -13 2 -23 -3 -10 -5 -20 -6 -24 -3 -3 3 -27 5
-54 4 -26 -1 -58 -1 -72 -1 -14 1 -31 1 -37 1 -60 -4 -104 -3 -109 2 -3 3 -19
1 -35 -3 -16 -5 -29 -5 -29 0 0 13 -68 -11 -86 -31 -9 -10 -18 -35 -21 -57 -5
-39 13 -77 73 -152 52 -64 164 -212 164 -215 0 -4 18 -27 55 -69 6 -6 21 -27
35 -46 13 -19 28 -39 32 -45 9 -11 46 -60 88 -115 14 -18 37 -49 53 -68 15
-19 27 -42 27 -51 -1 -45 40 -43 -1043 -43 l-1025 0 -31 -22 c-16 -11 -33 -31
-36 -44 -7 -29 4 -92 16 -92 5 0 9 -5 9 -11 0 -6 15 -34 33 -62 19 -29 53 -83
77 -122 24 -38 58 -94 77 -122 18 -29 33 -55 33 -57 0 -17 105 -159 122 -165
12 -4 402 -8 867 -9 465 0 854 -1 863 -1 17 -1 48 -27 48 -40 0 -8 -26 -44
-52 -72 -10 -11 -18 -23 -18 -28 0 -5 -3 -11 -8 -13 -4 -1 -32 -37 -62 -78
-30 -41 -61 -82 -67 -90 -29 -35 -289 -378 -310 -409 -26 -38 -29 -65 -11
-103 28 -59 -5 -57 825 -56 419 0 771 -3 782 -7 12 -4 21 -15 21 -27 0 -20
-73 -143 -147 -250 -18 -26 -33 -50 -33 -53 0 -4 -18 -33 -40 -65 -22 -32 -40
-64 -40 -69 0 -6 -3 -11 -7 -11 -5 0 -20 -21 -36 -48 -34 -59 -42 -72 -92
-148 -22 -34 -56 -88 -76 -120 -97 -156 -163 -259 -169 -264 -4 -3 -10 -21
-13 -40 -6 -40 24 -95 58 -107 11 -4 231 -7 490 -7 l469 -1 12 -23 c9 -19 7
-31 -12 -70 -33 -68 -104 -222 -104 -227 0 -3 -17 -42 -39 -87 -122 -263 -162
-359 -163 -387 -1 -38 30 -78 67 -87 17 -4 172 -8 345 -8 l316 -1 -1 1147 0
1147 -523 524 c-427 428 -521 528 -515 543 4 11 239 251 523 535 l516 516 0
1146 0 1147 -332 0 -332 0 -32 -32z"/>
<path d="M4059 7408 c-1 -2 -2 -518 -3 -1148 l-2 -1145 522 -523 c376 -377
521 -529 519 -542 -2 -11 -236 -252 -521 -537 l-517 -518 -1 -1120 c0 -616 0
-1131 2 -1145 l4 -25 328 1 c369 1 369 1 390 72 11 33 9 44 -16 97 -15 33 -29
62 -29 65 -1 3 -13 30 -27 60 -206 450 -249 551 -243 570 3 11 9 21 13 21 4 1
219 3 479 4 518 2 511 1 534 63 12 30 4 85 -14 105 -14 15 -29 39 -53 81 -9
16 -44 72 -78 125 -79 121 -256 399 -270 426 -6 11 -42 66 -79 123 -37 57 -67
105 -67 108 0 3 -5 10 -10 17 -21 25 -62 92 -71 115 -7 18 -6 29 5 41 13 14
89 16 783 15 439 0 777 3 788 8 30 14 56 55 57 88 1 17 -11 47 -28 71 -16 23
-33 49 -39 57 -5 9 -18 25 -27 36 -9 12 -50 66 -92 121 -41 55 -79 105 -83
110 -5 6 -58 75 -118 155 -60 80 -118 154 -127 164 -23 25 -23 62 0 72 9 4
407 8 884 8 l868 1 24 25 c13 14 98 144 187 289 182 296 188 311 131 363 l-32
28 -1023 0 c-562 0 -1027 4 -1033 8 -20 13 -23 40 -6 63 17 26 19 28 55 74 13
17 79 104 148 195 68 91 126 167 129 170 3 3 24 30 45 60 38 52 57 77 80 104
31 35 56 79 61 105 7 34 -17 85 -49 103 -17 9 -206 12 -792 14 -423 1 -775 2
-781 3 -31 3 -22 38 28 120 29 47 56 91 60 96 8 9 138 215 429 679 66 104 119
199 119 212 0 75 -46 103 -166 103 -49 -1 -93 0 -99 1 -5 1 -14 2 -20 1 -14
-3 -208 -3 -220 -1 -6 1 -13 1 -17 0 -9 -2 -14 -2 -292 -1 -169 1 -207 4 -220
16 -17 17 -15 24 55 172 22 46 39 85 39 87 0 2 20 46 44 98 47 101 62 133 129
283 61 136 63 160 18 206 l-29 29 -331 0 c-182 0 -332 -1 -332 -2z"/>
</g>
</svg>
